<?xml version="1.0" encoding="UTF-8" standalone="no"?>
<svg
   height="16"
   viewBox="0 -960 320 320"
   width="16"
   version="1.1"
   id="svg4"
   sodipodi:docname="draw3d.svg"
   inkscape:version="1.2.1 (9c6d41e410, 2022-07-14)"
   xmlns:inkscape="http://www.inkscape.org/namespaces/inkscape"
   xmlns:sodipodi="http://sodipodi.sourceforge.net/DTD/sodipodi-0.dtd"
   xmlns="http://www.w3.org/2000/svg"
   xmlns:svg="http://www.w3.org/2000/svg">
  <defs
     id="defs8" />
  <sodipodi:namedview
     id="namedview6"
     pagecolor="#505050"
     bordercolor="#ffffff"
     borderopacity="1"
     inkscape:showpageshadow="0"
     inkscape:pageopacity="0"
     inkscape:pagecheckerboard="1"
     inkscape:deskcolor="#505050"
     showgrid="false"
     inkscape:zoom="27.812867"
     inkscape:cx="1.9235701"
     inkscape:cy="18.660428"
     inkscape:window-width="2544"
     inkscape:window-height="1337"
     inkscape:window-x="1280"
     inkscape:window-y="16"
     inkscape:window-maximized="0"
     inkscape:current-layer="svg4" />
  <path
     d="m 73.409719,-814.16636 q -30.055925,0 -51.239922,-21.184 -21.18399475,-21.18399 -21.18399475,-51.23992 0,-30.41805 21.18399475,-51.42098 21.183997,-21.00293 51.239922,-21.00293 30.418041,0 51.420981,21.00293 21.00294,21.00293 21.00294,51.42098 0,30.05593 -21.00294,51.23992 -21.00294,21.184 -51.420981,21.184 z m 0,-21.72718 q 21.546121,0 36.121421,-14.78643 14.57532,-14.78679 14.57532,-35.91031 0,-21.54611 -14.57532,-36.12143 -14.5753,-14.5753 -36.121421,-14.5753 -21.123522,0 -35.910313,14.5753 -14.786428,14.57532 -14.786428,36.12143 0,21.12352 14.786428,35.91031 14.786791,14.78643 35.910313,14.78643 z m 137.605441,195.54458 q -8.96245,0 -15.34481,-6.38235 -6.38235,-6.38236 -6.38235,-15.34482 v -86.90871 q 0,-8.96245 6.38235,-15.34481 6.38236,-6.38236 15.34481,-6.38236 h 86.90871 q 8.96246,0 15.34482,6.38236 6.38235,6.38236 6.38235,15.34481 v 86.90871 q 0,8.96246 -6.38235,15.34482 -6.38236,6.38235 -15.34482,6.38235 z m 0,-21.72717 h 86.90871 v -86.90871 h -86.90871 z m 43.45437,-43.45434 z M 73.409719,-886.59028 Z M 245.41654,-869.20854 90.791463,-714.9456 q 2.534839,4.34545 3.802251,9.28837 1.267426,4.94294 1.267426,10.26609 0,16.29537 -11.587829,28.06427 -11.587831,11.76889 -28.227588,11.76889 -16.313126,0 -28.082011,-11.76889 -11.768887,-11.7689 -11.768887,-28.08201 0,-16.63976 11.768887,-28.22758 11.768885,-11.58782 28.064267,-11.58782 5.323158,0 10.266089,1.26741 4.942933,1.26742 9.288369,3.80225 L 229.84538,-884.77967 q -2.53483,-4.34545 -3.80225,-9.23405 -1.26741,-4.88862 -1.26741,-9.9583 0,-16.6575 11.76888,-28.24533 11.76888,-11.58783 28.08201,-11.58783 16.63976,0 28.22759,11.58783 11.58782,11.58783 11.58782,28.22759 0,16.31312 -11.58782,28.08202 -11.58783,11.76888 -28.24534,11.76888 -5.06967,0 -9.95829,-1.26742 -4.88862,-1.26741 -9.23403,-3.80226 z"
     id="path2"
     style="fill:#ffffff;stroke-width:0.36212" />
</svg>
